<?xml version="1.0" encoding="UTF-8" standalone="no"?>
<!DOCTYPE svg PUBLIC "-//W3C//DTD SVG 1.1//EN" "http://www.w3.org/Graphics/SVG/1.1/DTD/svg11.dtd">
<svg width="100%" height="100%" viewBox="0 0 80 80" version="1.1" xmlns="http://www.w3.org/2000/svg" xmlns:xlink="http://www.w3.org/1999/xlink" xml:space="preserve" xmlns:serif="http://www.serif.com/" style="fill-rule:evenodd;clip-rule:evenodd;stroke-linejoin:round;stroke-miterlimit:2;">
    <g transform="matrix(0.128205,0,0,0.169811,-28.3761,-25.6604)">
        <rect id="Artboard1" x="221.333" y="151.111" width="624" height="471.111" style="fill:none;"/>
        <g id="Artboard11" serif:id="Artboard1">
            <g transform="matrix(2.24314,0,0,1.64349,-315.812,-31.2939)">
                <g id="Encore">
                    <g>
                        <g transform="matrix(1,0,0,1,204.105,34.9798)">
                            <path d="M100.427,284.972C95.741,284.409 91.424,281.559 89.194,277.01L58.249,213.902C57.417,212.206 56.95,210.425 56.817,208.649C55.151,204.727 54.943,200.18 56.587,195.892L94.095,98.029C97.461,89.248 107.322,84.851 116.104,88.216C124.885,91.582 129.282,101.444 125.916,110.225L115.506,137.385L196.702,93.996C204.996,89.563 215.328,92.699 219.761,100.993C222.149,105.462 222.34,110.522 220.711,114.932L231.847,108.981C240.141,104.549 250.474,107.685 254.906,115.979C256.491,118.945 257.108,122.173 256.867,125.298C246.677,120.189 233.955,122.811 226.703,132.154L226.604,132.282C225.472,130.904 224.17,129.63 222.702,128.491C212.075,120.243 196.75,122.174 188.502,132.802L144.114,189.993L143.605,180.586C142.879,167.153 131.384,156.837 117.951,157.563C104.518,158.289 94.202,169.784 94.928,183.217L100.427,284.972ZM249.51,138.066C249,138.415 248.466,138.739 247.908,139.037L234.279,146.32L238.293,141.149C240.995,137.668 245.604,136.531 249.51,138.066ZM233.574,147.229C240.037,146.815 246.457,150.123 249.706,156.204C249.911,156.587 250.1,156.975 250.273,157.367L242.807,166.985C240.629,169.792 240.775,173.756 243.154,176.395C243.682,176.98 244.286,177.463 244.94,177.84C244.245,178.363 243.5,178.839 242.709,179.262L225.851,188.271C230.802,189.165 235.313,192.231 237.866,197.008C242.298,205.302 239.163,215.635 230.869,220.067L129.85,274.049C128.03,275.021 126.113,275.63 124.181,275.899L114.876,280.462L109.577,182.425C109.288,177.077 113.395,172.501 118.743,172.212C124.091,171.923 128.667,176.03 128.956,181.378L130.526,210.422C130.691,213.48 132.739,216.113 135.662,217.027C138.584,217.941 141.767,216.943 143.645,214.523L200.092,141.797C203.375,137.566 209.476,136.797 213.707,140.081C215.987,141.85 217.26,144.439 217.437,147.112C217.639,150.151 219.698,152.75 222.61,153.641C225.523,154.532 228.683,153.53 230.551,151.124L233.574,147.229ZM139.962,262.072L132.959,255.447L140.305,262.771C142.571,262.771 144.71,261.724 146.099,259.933L146.458,259.472C148.326,257.065 148.512,253.755 146.926,251.155C145.34,248.554 142.312,247.204 139.317,247.763C139.245,247.777 139.173,247.789 139.1,247.801L140,258.891L134.868,250.476L134.51,250.938L139.962,262.072Z" style="fill:rgb(92,45,145);"/>
                        </g>
                        <g transform="matrix(1,0,0,1,-560.102,-302.891)">
                            <path d="M903.058,552.136L959.504,479.409C965.27,471.98 975.983,470.63 983.412,476.396C987.414,479.502 989.652,484.045 989.964,488.736L997.705,478.761C1003.47,471.332 1014.18,469.982 1021.61,475.748C1029.04,481.514 1030.39,492.227 1024.63,499.656L1013.81,513.593C1019.69,509.932 1027.48,510.103 1033.27,514.597C1040.7,520.363 1042.05,531.076 1036.28,538.505L1024.56,553.605C1029.45,552.402 1034.82,553.362 1039.1,556.683C1046.52,562.449 1047.87,573.162 1042.11,580.591L971.881,671.073C970.616,672.703 969.113,674.04 967.459,675.074L956.256,688.513C951.165,694.621 942.073,695.446 935.966,690.355L881.978,645.35C880.527,644.14 879.374,642.705 878.527,641.137C875.407,638.236 873.364,634.169 873.116,629.583L867.459,524.931C866.952,515.54 874.164,507.505 883.554,506.997C892.944,506.489 900.98,513.701 901.488,523.092L903.058,552.136ZM905.512,597.546L905.87,597.084C905.744,597.107 905.617,597.129 905.491,597.15L905.512,597.546Z" style="fill:rgb(92,45,145);"/>
                        </g>
                    </g>
                </g>
            </g>
        </g>
    </g>
</svg>
